<svg width="100%" height="100%" id="svg" viewBox="0 0 1440 500" xmlns="http://www.w3.org/2000/svg" class="transition duration-300 ease-in-out delay-150"><defs><linearGradient id="gradient" x1="5%" y1="29%" x2="95%" y2="71%"><stop offset="5%" stop-color="#9796f088"></stop><stop offset="95%" stop-color="#f78da788"></stop></linearGradient></defs><path d="M 0,500 C 0,500 0,166 0,166 C 47.62466395363177,196.9666296707362 95.24932790726353,227.93325934147245 143,221 C 190.75067209273647,214.06674065852755 238.6273523245776,169.23359230484647 302,146 C 365.3726476754224,122.76640769515355 444.241262794426,121.1323714391417 494,142 C 543.758737205574,162.8676285608583 564.4075964977186,206.23692193858673 612,208 C 659.5924035022814,209.76307806141327 734.1283512146997,169.91994080651128 797,169 C 859.8716487853003,168.08005919348872 911.0789986434826,206.0833148353681 954,206 C 996.9210013565174,205.9166851646319 1031.5556542113702,167.74679985201627 1090,148 C 1148.4443457886298,128.25320014798373 1230.6983845110371,126.92948575656678 1293,133 C 1355.3016154889629,139.07051424343322 1397.6508077444814,152.5352571217166 1440,166 C 1440,166 1440,500 1440,500 Z" stroke="none" stroke-width="0" fill="url(#gradient)" class="transition-all duration-300 ease-in-out delay-150 path-0"></path><defs><linearGradient id="gradient" x1="5%" y1="29%" x2="95%" y2="71%"><stop offset="5%" stop-color="#9796f0ff"></stop><stop offset="95%" stop-color="#f78da7ff"></stop></linearGradient></defs><path d="M 0,500 C 0,500 0,333 0,333 C 41.60956961400913,348.73066962634107 83.21913922801826,364.4613392526822 130,364 C 176.78086077198174,363.5386607473178 228.73301270193616,346.8853126156123 295,326 C 361.26698729806384,305.1146873843877 441.84880996423715,279.99741028486864 501,286 C 560.1511900357629,292.00258971513136 597.8717474411148,329.12504624491305 639,347 C 680.1282525588852,364.87495375508695 724.6642002713035,363.5024047354791 781,368 C 837.3357997286965,372.4975952645209 905.4714514736712,382.86533481317053 956,367 C 1006.5285485263288,351.13466518682947 1039.4499938340118,309.03625601183876 1094,302 C 1148.5500061659882,294.96374398816124 1224.7285731902823,322.9896411394746 1286,334 C 1347.2714268097177,345.0103588605254 1393.635713404859,339.00517943026273 1440,333 C 1440,333 1440,500 1440,500 Z" stroke="none" stroke-width="0" fill="url(#gradient)" class="transition-all duration-300 ease-in-out delay-150 path-1"></path></svg>